<?xml version="1.0" encoding="utf-8"?>
<!DOCTYPE svg PUBLIC "-//W3C//DTD SVG 1.1//EN" "http://www.w3.org/Graphics/SVG/1.1/DTD/svg11.dtd">
<svg xmlns="http://www.w3.org/2000/svg" sds="23" width="600" height="550">
<text x="120" y="332" font-size="14pt" fill="#777"  text-anchor="start" transform="rotate(50, 120, 332)" >Python, picks on</text>
<text x="170" y="332" font-size="14pt" fill="#777"  text-anchor="start" transform="rotate(50, 170, 332)" >Python, picks off</text>
<text x="220" y="332" font-size="14pt" fill="#777"  text-anchor="start" transform="rotate(50, 220, 332)" >C++, picks on</text>
<text x="270" y="332" font-size="14pt" fill="#777"  text-anchor="start" transform="rotate(50, 270, 332)" >C++, picks off</text>
<text x="320" y="332" font-size="14pt" fill="#777"  text-anchor="start" transform="rotate(50, 320, 332)" >C#, picks on</text>
<text x="370" y="332" font-size="14pt" fill="#777"  text-anchor="start" transform="rotate(50, 370, 332)" >C#, picks off</text>
<text x="420" y="332" font-size="14pt" fill="#777"  text-anchor="start" transform="rotate(50, 420, 332)" >Rust, picks on</text>
<text x="470" y="332" font-size="14pt" fill="#777"  text-anchor="start" transform="rotate(50, 470, 332)" >Rust, picks off</text>
<polyline points="100,310,100,50" stroke="#aaa" stroke-width="1.0"  />
<polyline points="100,310,500,310" stroke="#aaa" stroke-width="1.0"  />
<polyline points="100,281.81,500,281.81" stroke="#aaa" stroke-width="1.0"  />
<polyline points="100,253.63,500,253.63" stroke="#aaa" stroke-width="1.0"  />
<polyline points="100,225.44,500,225.44" stroke="#aaa" stroke-width="1.0"  />
<polyline points="100,197.26,500,197.26" stroke="#aaa" stroke-width="1.0"  />
<polyline points="100,169.07,500,169.07" stroke="#aaa" stroke-width="1.0"  />
<polyline points="100,140.88,500,140.88" stroke="#aaa" stroke-width="1.0"  />
<polyline points="100,112.70,500,112.70" stroke="#aaa" stroke-width="1.0"  />
<polyline points="100,84.51,500,84.51" stroke="#aaa" stroke-width="1.0"  />
<polyline points="100,56.32,500,56.32" stroke="#aaa" stroke-width="1.0"  />
<text x="96" y="315.83" font-size="14pt" fill="#777"  text-anchor="end" >0</text>
<text x="96" y="287.65" font-size="14pt" fill="#777"  text-anchor="end" >50000</text>
<text x="96" y="259.46" font-size="14pt" fill="#777"  text-anchor="end" >100000</text>
<text x="96" y="231.27" font-size="14pt" fill="#777"  text-anchor="end" >150000</text>
<text x="96" y="203.09" font-size="14pt" fill="#777"  text-anchor="end" >200000</text>
<text x="96" y="174.90" font-size="14pt" fill="#777"  text-anchor="end" >250000</text>
<text x="96" y="146.72" font-size="14pt" fill="#777"  text-anchor="end" >300000</text>
<text x="96" y="118.53" font-size="14pt" fill="#777"  text-anchor="end" >350000</text>
<text x="96" y="90.34" font-size="14pt" fill="#777"  text-anchor="end" >400000</text>
<text x="96" y="62.16" font-size="14pt" fill="#777"  text-anchor="end" >450000</text>
<text x="30" y="180" font-size="14pt" fill="#777"  text-anchor="middle" transform="rotate(-90, 30, 180)" >execution time [ms]</text>
<rect x="116" y="50" width="18" height="260" fill="#88AA88" />
<rect x="166" y="80.90" width="18" height="229.10" fill="#AB89AB" />
<rect x="216" y="308.02" width="18" height="1.98" fill="#88AA88" />
<rect x="266" y="308.37" width="18" height="1.63" fill="#AB89AB" />
<rect x="316" y="304.87" width="18" height="5.13" fill="#88AA88" />
<rect x="366" y="305.01" width="18" height="4.99" fill="#AB89AB" />
<rect x="416" y="305.37" width="18" height="4.63" fill="#88AA88" />
<rect x="466" y="306.09" width="18" height="3.91" fill="#AB89AB" />
<text x="55" y="30" font-size="20pt" fill="#777"  text-anchor="start" >Test case: 03_WEIGHTS100_Xu_Xu_et_al.in</text>

</svg>

