<?xml version="1.0" encoding="utf-8"?>
<!DOCTYPE svg PUBLIC "-//W3C//DTD SVG 1.1//EN" "http://www.w3.org/Graphics/SVG/1.1/DTD/svg11.dtd">
<svg xmlns="http://www.w3.org/2000/svg" sds="23" width="600" height="550">
<text x="128.33" y="332" font-size="14pt" fill="#777"  text-anchor="start" transform="rotate(50, 128.33, 332)" >C++, picks on</text>
<text x="195" y="332" font-size="14pt" fill="#777"  text-anchor="start" transform="rotate(50, 195, 332)" >C++, picks off</text>
<text x="261.67" y="332" font-size="14pt" fill="#777"  text-anchor="start" transform="rotate(50, 261.67, 332)" >C#, picks on</text>
<text x="328.33" y="332" font-size="14pt" fill="#777"  text-anchor="start" transform="rotate(50, 328.33, 332)" >C#, picks off</text>
<text x="395" y="332" font-size="14pt" fill="#777"  text-anchor="start" transform="rotate(50, 395, 332)" >Rust, picks on</text>
<text x="461.67" y="332" font-size="14pt" fill="#777"  text-anchor="start" transform="rotate(50, 461.67, 332)" >Rust, picks off</text>
<polyline points="100,310,100,50" stroke="#aaa" stroke-width="1.0"  />
<polyline points="100,310,500,310" stroke="#aaa" stroke-width="1.0"  />
<polyline points="100,281.08,500,281.08" stroke="#aaa" stroke-width="1.0"  />
<polyline points="100,252.15,500,252.15" stroke="#aaa" stroke-width="1.0"  />
<polyline points="100,223.23,500,223.23" stroke="#aaa" stroke-width="1.0"  />
<polyline points="100,194.30,500,194.30" stroke="#aaa" stroke-width="1.0"  />
<polyline points="100,165.38,500,165.38" stroke="#aaa" stroke-width="1.0"  />
<polyline points="100,136.45,500,136.45" stroke="#aaa" stroke-width="1.0"  />
<polyline points="100,107.53,500,107.53" stroke="#aaa" stroke-width="1.0"  />
<polyline points="100,78.61,500,78.61" stroke="#aaa" stroke-width="1.0"  />
<text x="96" y="315.83" font-size="14pt" fill="#777"  text-anchor="end" >0</text>
<text x="96" y="286.91" font-size="14pt" fill="#777"  text-anchor="end" >1000</text>
<text x="96" y="257.98" font-size="14pt" fill="#777"  text-anchor="end" >2000</text>
<text x="96" y="229.06" font-size="14pt" fill="#777"  text-anchor="end" >3000</text>
<text x="96" y="200.14" font-size="14pt" fill="#777"  text-anchor="end" >4000</text>
<text x="96" y="171.21" font-size="14pt" fill="#777"  text-anchor="end" >5000</text>
<text x="96" y="142.29" font-size="14pt" fill="#777"  text-anchor="end" >6000</text>
<text x="96" y="113.36" font-size="14pt" fill="#777"  text-anchor="end" >7000</text>
<text x="96" y="84.44" font-size="14pt" fill="#777"  text-anchor="end" >8000</text>
<text x="30" y="180" font-size="14pt" fill="#777"  text-anchor="middle" transform="rotate(-90, 30, 180)" >execution time [ms]</text>
<rect x="124.33" y="206.36" width="18" height="103.64" fill="#88AA88" />
<rect x="191" y="226.24" width="18" height="83.76" fill="#AB89AB" />
<rect x="257.67" y="50" width="18" height="260" fill="#88AA88" />
<rect x="324.33" y="63.31" width="18" height="246.69" fill="#AB89AB" />
<rect x="391" y="74.47" width="18" height="235.53" fill="#88AA88" />
<rect x="457.67" y="110.22" width="18" height="199.78" fill="#AB89AB" />
<text x="55" y="30" font-size="20pt" fill="#777"  text-anchor="start" >Test case: 03_WEIGHTS100_Xu_Xu_et_al.in</text>

</svg>

