<?xml version="1.0" encoding="utf-8"?>
<!DOCTYPE svg PUBLIC "-//W3C//DTD SVG 1.1//EN" "http://www.w3.org/Graphics/SVG/1.1/DTD/svg11.dtd">
<svg xmlns="http://www.w3.org/2000/svg" sds="23" width="600" height="550">
<text x="128.33" y="332" font-size="14pt" fill="#777"  text-anchor="start" transform="rotate(50, 128.33, 332)" >C++, picks on</text>
<text x="195" y="332" font-size="14pt" fill="#777"  text-anchor="start" transform="rotate(50, 195, 332)" >C++, picks off</text>
<text x="261.67" y="332" font-size="14pt" fill="#777"  text-anchor="start" transform="rotate(50, 261.67, 332)" >C#, picks on</text>
<text x="328.33" y="332" font-size="14pt" fill="#777"  text-anchor="start" transform="rotate(50, 328.33, 332)" >C#, picks off</text>
<text x="395" y="332" font-size="14pt" fill="#777"  text-anchor="start" transform="rotate(50, 395, 332)" >Rust, picks on</text>
<text x="461.67" y="332" font-size="14pt" fill="#777"  text-anchor="start" transform="rotate(50, 461.67, 332)" >Rust, picks off</text>
<polyline points="100,310,100,50" stroke="#aaa" stroke-width="1.0"  />
<polyline points="100,310,500,310" stroke="#aaa" stroke-width="1.0"  />
<polyline points="100,279.77,500,279.77" stroke="#aaa" stroke-width="1.0"  />
<polyline points="100,249.53,500,249.53" stroke="#aaa" stroke-width="1.0"  />
<polyline points="100,219.30,500,219.30" stroke="#aaa" stroke-width="1.0"  />
<polyline points="100,189.07,500,189.07" stroke="#aaa" stroke-width="1.0"  />
<polyline points="100,158.84,500,158.84" stroke="#aaa" stroke-width="1.0"  />
<polyline points="100,128.60,500,128.60" stroke="#aaa" stroke-width="1.0"  />
<polyline points="100,98.37,500,98.37" stroke="#aaa" stroke-width="1.0"  />
<polyline points="100,68.14,500,68.14" stroke="#aaa" stroke-width="1.0"  />
<text x="96" y="315.83" font-size="14pt" fill="#777"  text-anchor="end" >0</text>
<text x="96" y="285.60" font-size="14pt" fill="#777"  text-anchor="end" >20</text>
<text x="96" y="255.37" font-size="14pt" fill="#777"  text-anchor="end" >40</text>
<text x="96" y="225.14" font-size="14pt" fill="#777"  text-anchor="end" >60</text>
<text x="96" y="194.90" font-size="14pt" fill="#777"  text-anchor="end" >80</text>
<text x="96" y="164.67" font-size="14pt" fill="#777"  text-anchor="end" >100</text>
<text x="96" y="134.44" font-size="14pt" fill="#777"  text-anchor="end" >120</text>
<text x="96" y="104.21" font-size="14pt" fill="#777"  text-anchor="end" >140</text>
<text x="96" y="73.97" font-size="14pt" fill="#777"  text-anchor="end" >160</text>
<text x="30" y="180" font-size="14pt" fill="#777"  text-anchor="middle" transform="rotate(-90, 30, 180)" >execution time [ms]</text>
<rect x="124.33" y="145.23" width="18" height="164.77" fill="#88AA88" />
<rect x="191" y="279.77" width="18" height="30.23" fill="#AB89AB" />
<rect x="257.67" y="50" width="18" height="260" fill="#88AA88" />
<rect x="324.33" y="176.98" width="18" height="133.02" fill="#AB89AB" />
<rect x="391" y="160.35" width="18" height="149.65" fill="#88AA88" />
<rect x="457.67" y="249.53" width="18" height="60.47" fill="#AB89AB" />
<text x="55" y="30" font-size="20pt" fill="#777"  text-anchor="start" >Test case: 02_WEIGHTS24_Kreher-Stinson.in</text>

</svg>

