<?xml version="1.0" encoding="utf-8"?>
<!DOCTYPE svg PUBLIC "-//W3C//DTD SVG 1.1//EN" "http://www.w3.org/Graphics/SVG/1.1/DTD/svg11.dtd">
<svg xmlns="http://www.w3.org/2000/svg" sds="23" width="600" height="550">
<text x="128.33" y="332" font-size="14pt" fill="#777"  text-anchor="start" transform="rotate(50, 128.33, 332)" >C++, picks on</text>
<text x="195" y="332" font-size="14pt" fill="#777"  text-anchor="start" transform="rotate(50, 195, 332)" >C++, picks off</text>
<text x="261.67" y="332" font-size="14pt" fill="#777"  text-anchor="start" transform="rotate(50, 261.67, 332)" >C#, picks on</text>
<text x="328.33" y="332" font-size="14pt" fill="#777"  text-anchor="start" transform="rotate(50, 328.33, 332)" >C#, picks off</text>
<text x="395" y="332" font-size="14pt" fill="#777"  text-anchor="start" transform="rotate(50, 395, 332)" >Rust, picks on</text>
<text x="461.67" y="332" font-size="14pt" fill="#777"  text-anchor="start" transform="rotate(50, 461.67, 332)" >Rust, picks off</text>
<polyline points="100,310,100,50" stroke="#aaa" stroke-width="1.0"  />
<polyline points="100,310,500,310" stroke="#aaa" stroke-width="1.0"  />
<polyline points="100,281.27,500,281.27" stroke="#aaa" stroke-width="1.0"  />
<polyline points="100,252.54,500,252.54" stroke="#aaa" stroke-width="1.0"  />
<polyline points="100,223.81,500,223.81" stroke="#aaa" stroke-width="1.0"  />
<polyline points="100,195.08,500,195.08" stroke="#aaa" stroke-width="1.0"  />
<polyline points="100,166.35,500,166.35" stroke="#aaa" stroke-width="1.0"  />
<polyline points="100,137.62,500,137.62" stroke="#aaa" stroke-width="1.0"  />
<polyline points="100,108.90,500,108.90" stroke="#aaa" stroke-width="1.0"  />
<polyline points="100,80.17,500,80.17" stroke="#aaa" stroke-width="1.0"  />
<polyline points="100,51.44,500,51.44" stroke="#aaa" stroke-width="1.0"  />
<text x="96" y="315.83" font-size="14pt" fill="#777"  text-anchor="end" >0</text>
<text x="96" y="287.10" font-size="14pt" fill="#777"  text-anchor="end" >20</text>
<text x="96" y="258.37" font-size="14pt" fill="#777"  text-anchor="end" >40</text>
<text x="96" y="229.65" font-size="14pt" fill="#777"  text-anchor="end" >60</text>
<text x="96" y="200.92" font-size="14pt" fill="#777"  text-anchor="end" >80</text>
<text x="96" y="172.19" font-size="14pt" fill="#777"  text-anchor="end" >100</text>
<text x="96" y="143.46" font-size="14pt" fill="#777"  text-anchor="end" >120</text>
<text x="96" y="114.73" font-size="14pt" fill="#777"  text-anchor="end" >140</text>
<text x="96" y="86" font-size="14pt" fill="#777"  text-anchor="end" >160</text>
<text x="96" y="57.27" font-size="14pt" fill="#777"  text-anchor="end" >180</text>
<text x="30" y="180" font-size="14pt" fill="#777"  text-anchor="middle" transform="rotate(-90, 30, 180)" >execution time [ms]</text>
<rect x="124.33" y="50" width="18" height="260" fill="#88AA88" />
<rect x="191" y="310" width="18" height="0" fill="#AB89AB" />
<rect x="257.67" y="249.67" width="18" height="60.33" fill="#88AA88" />
<rect x="324.33" y="265.47" width="18" height="44.53" fill="#AB89AB" />
<rect x="391" y="305.69" width="18" height="4.31" fill="#88AA88" />
<rect x="457.67" y="310" width="18" height="0" fill="#AB89AB" />
<text x="55" y="30" font-size="20pt" fill="#777"  text-anchor="start" >Test case: 05_WEIGHTS_TODD_18.in</text>

</svg>

