<?xml version="1.0" encoding="utf-8"?>
<!DOCTYPE svg PUBLIC "-//W3C//DTD SVG 1.1//EN" "http://www.w3.org/Graphics/SVG/1.1/DTD/svg11.dtd">
<svg xmlns="http://www.w3.org/2000/svg" sds="23" width="600" height="550">
<text x="120" y="332" font-size="14pt" fill="#777"  text-anchor="start" transform="rotate(50, 120, 332)" >Python, picks on</text>
<text x="170" y="332" font-size="14pt" fill="#777"  text-anchor="start" transform="rotate(50, 170, 332)" >Python, picks off</text>
<text x="220" y="332" font-size="14pt" fill="#777"  text-anchor="start" transform="rotate(50, 220, 332)" >C++, picks on</text>
<text x="270" y="332" font-size="14pt" fill="#777"  text-anchor="start" transform="rotate(50, 270, 332)" >C++, picks off</text>
<text x="320" y="332" font-size="14pt" fill="#777"  text-anchor="start" transform="rotate(50, 320, 332)" >C#, picks on</text>
<text x="370" y="332" font-size="14pt" fill="#777"  text-anchor="start" transform="rotate(50, 370, 332)" >C#, picks off</text>
<text x="420" y="332" font-size="14pt" fill="#777"  text-anchor="start" transform="rotate(50, 420, 332)" >Rust, picks on</text>
<text x="470" y="332" font-size="14pt" fill="#777"  text-anchor="start" transform="rotate(50, 470, 332)" >Rust, picks off</text>
<polyline points="100,310,100,50" stroke="#aaa" stroke-width="1.0"  />
<polyline points="100,310,500,310" stroke="#aaa" stroke-width="1.0"  />
<polyline points="100,281.89,500,281.89" stroke="#aaa" stroke-width="1.0"  />
<polyline points="100,253.77,500,253.77" stroke="#aaa" stroke-width="1.0"  />
<polyline points="100,225.66,500,225.66" stroke="#aaa" stroke-width="1.0"  />
<polyline points="100,197.54,500,197.54" stroke="#aaa" stroke-width="1.0"  />
<polyline points="100,169.43,500,169.43" stroke="#aaa" stroke-width="1.0"  />
<polyline points="100,141.32,500,141.32" stroke="#aaa" stroke-width="1.0"  />
<polyline points="100,113.20,500,113.20" stroke="#aaa" stroke-width="1.0"  />
<polyline points="100,85.09,500,85.09" stroke="#aaa" stroke-width="1.0"  />
<polyline points="100,56.98,500,56.98" stroke="#aaa" stroke-width="1.0"  />
<text x="96" y="315.83" font-size="14pt" fill="#777"  text-anchor="end" >0</text>
<text x="96" y="287.72" font-size="14pt" fill="#777"  text-anchor="end" >50000</text>
<text x="96" y="259.61" font-size="14pt" fill="#777"  text-anchor="end" >100000</text>
<text x="96" y="231.49" font-size="14pt" fill="#777"  text-anchor="end" >150000</text>
<text x="96" y="203.38" font-size="14pt" fill="#777"  text-anchor="end" >200000</text>
<text x="96" y="175.26" font-size="14pt" fill="#777"  text-anchor="end" >250000</text>
<text x="96" y="147.15" font-size="14pt" fill="#777"  text-anchor="end" >300000</text>
<text x="96" y="119.04" font-size="14pt" fill="#777"  text-anchor="end" >350000</text>
<text x="96" y="90.92" font-size="14pt" fill="#777"  text-anchor="end" >400000</text>
<text x="96" y="62.81" font-size="14pt" fill="#777"  text-anchor="end" >450000</text>
<text x="30" y="180" font-size="14pt" fill="#777"  text-anchor="middle" transform="rotate(-90, 30, 180)" >execution time [ms]</text>
<rect x="116" y="50" width="18" height="260" fill="#88AA88" />
<rect x="166" y="83.02" width="18" height="226.98" fill="#AB89AB" />
<rect x="216" y="307.99" width="18" height="2.01" fill="#88AA88" />
<rect x="266" y="308.37" width="18" height="1.63" fill="#AB89AB" />
<rect x="316" y="304.95" width="18" height="5.05" fill="#88AA88" />
<rect x="366" y="305.20" width="18" height="4.80" fill="#AB89AB" />
<rect x="416" y="305.42" width="18" height="4.58" fill="#88AA88" />
<rect x="466" y="306.12" width="18" height="3.88" fill="#AB89AB" />
<text x="55" y="30" font-size="20pt" fill="#777"  text-anchor="start" >Test case: 03_WEIGHTS100_Xu_Xu_et_al.in</text>

</svg>

